<mxfile host="app.diagrams.net" modified="2020-12-08T16:29:53.479Z" agent="5.0 (X11; Linux x86_64) AppleWebKit/537.36 (KHTML, like Gecko) Chrome/87.0.4280.88 Safari/537.36" etag="cr8TuUEWA47_QHCB9qD4" version="13.11.0" type="github">
  <diagram id="R2lEEEUBdFMjLlhIrx00" name="Page-1">
    <mxGraphModel dx="1604" dy="761" grid="1" gridSize="10" guides="1" tooltips="1" connect="1" arrows="1" fold="1" page="1" pageScale="1" pageWidth="850" pageHeight="1100" math="0" shadow="0" extFonts="Permanent Marker^https://fonts.googleapis.com/css?family=Permanent+Marker">
      <root>
        <mxCell id="0" />
        <mxCell id="1" parent="0" />
        <mxCell id="C-vyLk0tnHw3VtMMgP7b-23" value="App" style="shape=table;startSize=30;container=1;collapsible=1;childLayout=tableLayout;fixedRows=1;rowLines=0;fontStyle=0;align=center;resizeLast=1;fillColor=#dae8fc;strokeWidth=2;perimeterSpacing=1;rounded=1;shadow=1;gradientColor=#7ea6e0;swimlaneFillColor=#99CCFF;fontFamily=Permanent Marker;fontSource=https%3A%2F%2Ffonts.googleapis.com%2Fcss%3Ffamily%3DPermanent%2BMarker;fontSize=16;strokeColor=#6c8ebf;" parent="1" vertex="1">
          <mxGeometry x="-760" y="30" width="380" height="180" as="geometry" />
        </mxCell>
        <mxCell id="C-vyLk0tnHw3VtMMgP7b-24" value="" style="shape=partialRectangle;collapsible=0;dropTarget=0;pointerEvents=0;fillColor=none;points=[[0,0.5],[1,0.5]];portConstraint=eastwest;top=0;left=0;right=0;bottom=1;" parent="C-vyLk0tnHw3VtMMgP7b-23" vertex="1">
          <mxGeometry y="30" width="380" height="40" as="geometry" />
        </mxCell>
        <mxCell id="C-vyLk0tnHw3VtMMgP7b-25" value="props:" style="shape=partialRectangle;overflow=hidden;connectable=0;fillColor=none;top=0;left=0;bottom=0;right=0;fontStyle=0;fontFamily=Permanent Marker;fontSource=https%3A%2F%2Ffonts.googleapis.com%2Fcss%3Ffamily%3DPermanent%2BMarker;fontSize=17;strokeColor=none;" parent="C-vyLk0tnHw3VtMMgP7b-24" vertex="1">
          <mxGeometry width="80" height="40" as="geometry" />
        </mxCell>
        <mxCell id="C-vyLk0tnHw3VtMMgP7b-26" value="" style="shape=partialRectangle;overflow=hidden;connectable=0;fillColor=none;top=0;left=0;bottom=0;right=0;align=left;spacingLeft=6;fontStyle=5;dashed=1;strokeColor=none;" parent="C-vyLk0tnHw3VtMMgP7b-24" vertex="1">
          <mxGeometry x="80" width="300" height="40" as="geometry" />
        </mxCell>
        <mxCell id="C-vyLk0tnHw3VtMMgP7b-27" value="" style="shape=partialRectangle;collapsible=0;dropTarget=0;pointerEvents=0;fillColor=none;points=[[0,0.5],[1,0.5]];portConstraint=eastwest;top=0;left=0;right=0;bottom=0;" parent="C-vyLk0tnHw3VtMMgP7b-23" vertex="1">
          <mxGeometry y="70" width="380" height="80" as="geometry" />
        </mxCell>
        <mxCell id="C-vyLk0tnHw3VtMMgP7b-28" value="state: " style="shape=partialRectangle;overflow=hidden;connectable=0;fillColor=none;top=0;left=0;bottom=0;right=0;fontStyle=0;fontFamily=Permanent Marker;fontSource=https%3A%2F%2Ffonts.googleapis.com%2Fcss%3Ffamily%3DPermanent%2BMarker;fontSize=17;strokeColor=none;" parent="C-vyLk0tnHw3VtMMgP7b-27" vertex="1">
          <mxGeometry width="80" height="80" as="geometry" />
        </mxCell>
        <mxCell id="C-vyLk0tnHw3VtMMgP7b-29" value="[ day, setDay ]&#xa;[interviewer, setInterviewer]" style="shape=partialRectangle;overflow=hidden;connectable=0;fillColor=none;top=0;left=0;bottom=0;right=0;align=left;spacingLeft=6;fontFamily=Comic Sans MS;fontSize=16;whiteSpace=wrap;" parent="C-vyLk0tnHw3VtMMgP7b-27" vertex="1">
          <mxGeometry x="80" width="300" height="80" as="geometry" />
        </mxCell>
        <mxCell id="A5uWAZjU7SPnxZfKaYR8-1" value="DayList" style="shape=table;startSize=30;container=1;collapsible=1;childLayout=tableLayout;fixedRows=1;rowLines=0;fontStyle=0;align=center;resizeLast=1;fillColor=#dae8fc;strokeWidth=2;perimeterSpacing=1;rounded=1;shadow=1;gradientColor=#7ea6e0;swimlaneFillColor=#99CCFF;fontFamily=Permanent Marker;fontSource=https%3A%2F%2Ffonts.googleapis.com%2Fcss%3Ffamily%3DPermanent%2BMarker;fontSize=16;strokeColor=#6c8ebf;" parent="1" vertex="1">
          <mxGeometry x="-760" y="240" width="250" height="150" as="geometry" />
        </mxCell>
        <mxCell id="A5uWAZjU7SPnxZfKaYR8-2" value="" style="shape=partialRectangle;collapsible=0;dropTarget=0;pointerEvents=0;fillColor=none;points=[[0,0.5],[1,0.5]];portConstraint=eastwest;top=0;left=0;right=0;bottom=1;" parent="A5uWAZjU7SPnxZfKaYR8-1" vertex="1">
          <mxGeometry y="30" width="250" height="40" as="geometry" />
        </mxCell>
        <mxCell id="A5uWAZjU7SPnxZfKaYR8-3" value="props:" style="shape=partialRectangle;overflow=hidden;connectable=0;fillColor=none;top=0;left=0;bottom=0;right=0;fontStyle=0;fontFamily=Permanent Marker;fontSource=https%3A%2F%2Ffonts.googleapis.com%2Fcss%3Ffamily%3DPermanent%2BMarker;fontSize=17;strokeColor=none;" parent="A5uWAZjU7SPnxZfKaYR8-2" vertex="1">
          <mxGeometry width="80" height="40" as="geometry" />
        </mxCell>
        <mxCell id="A5uWAZjU7SPnxZfKaYR8-4" value="days, day, setDay" style="shape=partialRectangle;overflow=hidden;connectable=0;fillColor=none;top=0;left=0;bottom=0;right=0;align=left;spacingLeft=6;fontStyle=0;dashed=1;strokeColor=none;fontFamily=Comic Sans MS;fontSize=16;" parent="A5uWAZjU7SPnxZfKaYR8-2" vertex="1">
          <mxGeometry x="80" width="170" height="40" as="geometry" />
        </mxCell>
        <mxCell id="A5uWAZjU7SPnxZfKaYR8-5" value="" style="shape=partialRectangle;collapsible=0;dropTarget=0;pointerEvents=0;fillColor=none;points=[[0,0.5],[1,0.5]];portConstraint=eastwest;top=0;left=0;right=0;bottom=0;" parent="A5uWAZjU7SPnxZfKaYR8-1" vertex="1">
          <mxGeometry y="70" width="250" height="30" as="geometry" />
        </mxCell>
        <mxCell id="A5uWAZjU7SPnxZfKaYR8-6" value="state: " style="shape=partialRectangle;overflow=hidden;connectable=0;fillColor=none;top=0;left=0;bottom=0;right=0;fontStyle=0;fontFamily=Permanent Marker;fontSource=https%3A%2F%2Ffonts.googleapis.com%2Fcss%3Ffamily%3DPermanent%2BMarker;fontSize=17;strokeColor=none;" parent="A5uWAZjU7SPnxZfKaYR8-5" vertex="1">
          <mxGeometry width="80" height="30" as="geometry" />
        </mxCell>
        <mxCell id="A5uWAZjU7SPnxZfKaYR8-7" value="" style="shape=partialRectangle;overflow=hidden;connectable=0;fillColor=none;top=0;left=0;bottom=0;right=0;align=left;spacingLeft=6;fontFamily=Comic Sans MS;fontSize=16;" parent="A5uWAZjU7SPnxZfKaYR8-5" vertex="1">
          <mxGeometry x="80" width="170" height="30" as="geometry" />
        </mxCell>
        <mxCell id="A5uWAZjU7SPnxZfKaYR8-8" value="DayListItem" style="shape=table;startSize=30;container=1;collapsible=1;childLayout=tableLayout;fixedRows=1;rowLines=0;fontStyle=0;align=center;resizeLast=1;fillColor=#dae8fc;strokeWidth=2;perimeterSpacing=1;rounded=1;shadow=1;gradientColor=#7ea6e0;swimlaneFillColor=#99CCFF;fontFamily=Permanent Marker;fontSource=https%3A%2F%2Ffonts.googleapis.com%2Fcss%3Ffamily%3DPermanent%2BMarker;fontSize=16;strokeColor=#6c8ebf;" parent="1" vertex="1">
          <mxGeometry x="-760" y="430" width="250" height="150" as="geometry" />
        </mxCell>
        <mxCell id="A5uWAZjU7SPnxZfKaYR8-9" value="" style="shape=partialRectangle;collapsible=0;dropTarget=0;pointerEvents=0;fillColor=none;points=[[0,0.5],[1,0.5]];portConstraint=eastwest;top=0;left=0;right=0;bottom=1;" parent="A5uWAZjU7SPnxZfKaYR8-8" vertex="1">
          <mxGeometry y="30" width="250" height="70" as="geometry" />
        </mxCell>
        <mxCell id="A5uWAZjU7SPnxZfKaYR8-10" value="props:" style="shape=partialRectangle;overflow=hidden;connectable=0;fillColor=none;top=0;left=0;bottom=0;right=0;fontStyle=0;fontFamily=Permanent Marker;fontSource=https%3A%2F%2Ffonts.googleapis.com%2Fcss%3Ffamily%3DPermanent%2BMarker;fontSize=17;strokeColor=none;" parent="A5uWAZjU7SPnxZfKaYR8-9" vertex="1">
          <mxGeometry width="80" height="70" as="geometry" />
        </mxCell>
        <mxCell id="A5uWAZjU7SPnxZfKaYR8-11" value="key, name, spots, selected, setDay" style="shape=partialRectangle;overflow=hidden;connectable=0;fillColor=none;top=0;left=0;bottom=0;right=0;align=left;spacingLeft=6;fontStyle=0;dashed=1;strokeColor=none;fontSize=16;fontFamily=Comic Sans MS;whiteSpace=wrap;" parent="A5uWAZjU7SPnxZfKaYR8-9" vertex="1">
          <mxGeometry x="80" width="170" height="70" as="geometry" />
        </mxCell>
        <mxCell id="A5uWAZjU7SPnxZfKaYR8-12" value="" style="shape=partialRectangle;collapsible=0;dropTarget=0;pointerEvents=0;fillColor=none;points=[[0,0.5],[1,0.5]];portConstraint=eastwest;top=0;left=0;right=0;bottom=0;" parent="A5uWAZjU7SPnxZfKaYR8-8" vertex="1">
          <mxGeometry y="100" width="250" height="30" as="geometry" />
        </mxCell>
        <mxCell id="A5uWAZjU7SPnxZfKaYR8-13" value="state: " style="shape=partialRectangle;overflow=hidden;connectable=0;fillColor=none;top=0;left=0;bottom=0;right=0;fontStyle=0;fontFamily=Permanent Marker;fontSource=https%3A%2F%2Ffonts.googleapis.com%2Fcss%3Ffamily%3DPermanent%2BMarker;fontSize=17;strokeColor=none;" parent="A5uWAZjU7SPnxZfKaYR8-12" vertex="1">
          <mxGeometry width="80" height="30" as="geometry" />
        </mxCell>
        <mxCell id="A5uWAZjU7SPnxZfKaYR8-14" value="" style="shape=partialRectangle;overflow=hidden;connectable=0;fillColor=none;top=0;left=0;bottom=0;right=0;align=left;spacingLeft=6;" parent="A5uWAZjU7SPnxZfKaYR8-12" vertex="1">
          <mxGeometry x="80" width="170" height="30" as="geometry" />
        </mxCell>
        <mxCell id="A5uWAZjU7SPnxZfKaYR8-15" value="InterviewerList" style="shape=table;startSize=30;container=1;collapsible=1;childLayout=tableLayout;fixedRows=1;rowLines=0;fontStyle=0;align=center;resizeLast=1;fillColor=#dae8fc;strokeWidth=2;perimeterSpacing=1;rounded=1;shadow=1;gradientColor=#7ea6e0;swimlaneFillColor=#99CCFF;fontFamily=Permanent Marker;fontSource=https%3A%2F%2Ffonts.googleapis.com%2Fcss%3Ffamily%3DPermanent%2BMarker;fontSize=16;strokeColor=#6c8ebf;" parent="1" vertex="1">
          <mxGeometry x="-720" y="630" width="250" height="150" as="geometry" />
        </mxCell>
        <mxCell id="A5uWAZjU7SPnxZfKaYR8-16" value="" style="shape=partialRectangle;collapsible=0;dropTarget=0;pointerEvents=0;fillColor=none;points=[[0,0.5],[1,0.5]];portConstraint=eastwest;top=0;left=0;right=0;bottom=1;" parent="A5uWAZjU7SPnxZfKaYR8-15" vertex="1">
          <mxGeometry y="30" width="250" height="70" as="geometry" />
        </mxCell>
        <mxCell id="A5uWAZjU7SPnxZfKaYR8-17" value="props:" style="shape=partialRectangle;overflow=hidden;connectable=0;fillColor=none;top=0;left=0;bottom=0;right=0;fontStyle=0;fontFamily=Permanent Marker;fontSource=https%3A%2F%2Ffonts.googleapis.com%2Fcss%3Ffamily%3DPermanent%2BMarker;fontSize=17;strokeColor=none;" parent="A5uWAZjU7SPnxZfKaYR8-16" vertex="1">
          <mxGeometry width="80" height="70" as="geometry" />
        </mxCell>
        <mxCell id="A5uWAZjU7SPnxZfKaYR8-18" value="interviewers, interviewer, setInterviewer" style="shape=partialRectangle;overflow=hidden;connectable=0;fillColor=none;top=0;left=0;bottom=0;right=0;align=left;spacingLeft=6;fontStyle=0;dashed=1;strokeColor=none;fontFamily=Comic Sans MS;fontSize=16;whiteSpace=wrap;labelBorderColor=none;" parent="A5uWAZjU7SPnxZfKaYR8-16" vertex="1">
          <mxGeometry x="80" width="170" height="70" as="geometry" />
        </mxCell>
        <mxCell id="A5uWAZjU7SPnxZfKaYR8-19" value="" style="shape=partialRectangle;collapsible=0;dropTarget=0;pointerEvents=0;fillColor=none;points=[[0,0.5],[1,0.5]];portConstraint=eastwest;top=0;left=0;right=0;bottom=0;" parent="A5uWAZjU7SPnxZfKaYR8-15" vertex="1">
          <mxGeometry y="100" width="250" height="30" as="geometry" />
        </mxCell>
        <mxCell id="A5uWAZjU7SPnxZfKaYR8-20" value="state: " style="shape=partialRectangle;overflow=hidden;connectable=0;fillColor=none;top=0;left=0;bottom=0;right=0;fontStyle=0;fontFamily=Permanent Marker;fontSource=https%3A%2F%2Ffonts.googleapis.com%2Fcss%3Ffamily%3DPermanent%2BMarker;fontSize=17;strokeColor=none;" parent="A5uWAZjU7SPnxZfKaYR8-19" vertex="1">
          <mxGeometry width="80" height="30" as="geometry" />
        </mxCell>
        <mxCell id="A5uWAZjU7SPnxZfKaYR8-21" value="" style="shape=partialRectangle;overflow=hidden;connectable=0;fillColor=none;top=0;left=0;bottom=0;right=0;align=left;spacingLeft=6;" parent="A5uWAZjU7SPnxZfKaYR8-19" vertex="1">
          <mxGeometry x="80" width="170" height="30" as="geometry" />
        </mxCell>
        <mxCell id="A5uWAZjU7SPnxZfKaYR8-22" value="APP" style="shape=table;startSize=30;container=1;collapsible=1;childLayout=tableLayout;fixedRows=1;rowLines=0;fontStyle=0;align=center;resizeLast=1;fillColor=#dae8fc;strokeWidth=2;perimeterSpacing=1;rounded=1;shadow=1;gradientColor=#7ea6e0;swimlaneFillColor=#99CCFF;fontFamily=Permanent Marker;fontSource=https%3A%2F%2Ffonts.googleapis.com%2Fcss%3Ffamily%3DPermanent%2BMarker;fontSize=16;strokeColor=#6c8ebf;" parent="1" vertex="1">
          <mxGeometry x="-30" y="820" width="250" height="150" as="geometry" />
        </mxCell>
        <mxCell id="A5uWAZjU7SPnxZfKaYR8-23" value="" style="shape=partialRectangle;collapsible=0;dropTarget=0;pointerEvents=0;fillColor=none;points=[[0,0.5],[1,0.5]];portConstraint=eastwest;top=0;left=0;right=0;bottom=1;" parent="A5uWAZjU7SPnxZfKaYR8-22" vertex="1">
          <mxGeometry y="30" width="250" height="40" as="geometry" />
        </mxCell>
        <mxCell id="A5uWAZjU7SPnxZfKaYR8-24" value="props:" style="shape=partialRectangle;overflow=hidden;connectable=0;fillColor=none;top=0;left=0;bottom=0;right=0;fontStyle=0;fontFamily=Permanent Marker;fontSource=https%3A%2F%2Ffonts.googleapis.com%2Fcss%3Ffamily%3DPermanent%2BMarker;fontSize=17;strokeColor=none;" parent="A5uWAZjU7SPnxZfKaYR8-23" vertex="1">
          <mxGeometry width="80" height="40" as="geometry" />
        </mxCell>
        <mxCell id="A5uWAZjU7SPnxZfKaYR8-25" value="" style="shape=partialRectangle;overflow=hidden;connectable=0;fillColor=none;top=0;left=0;bottom=0;right=0;align=left;spacingLeft=6;fontStyle=5;dashed=1;strokeColor=none;" parent="A5uWAZjU7SPnxZfKaYR8-23" vertex="1">
          <mxGeometry x="80" width="170" height="40" as="geometry" />
        </mxCell>
        <mxCell id="A5uWAZjU7SPnxZfKaYR8-26" value="" style="shape=partialRectangle;collapsible=0;dropTarget=0;pointerEvents=0;fillColor=none;points=[[0,0.5],[1,0.5]];portConstraint=eastwest;top=0;left=0;right=0;bottom=0;" parent="A5uWAZjU7SPnxZfKaYR8-22" vertex="1">
          <mxGeometry y="70" width="250" height="30" as="geometry" />
        </mxCell>
        <mxCell id="A5uWAZjU7SPnxZfKaYR8-27" value="state: " style="shape=partialRectangle;overflow=hidden;connectable=0;fillColor=none;top=0;left=0;bottom=0;right=0;fontStyle=0;fontFamily=Permanent Marker;fontSource=https%3A%2F%2Ffonts.googleapis.com%2Fcss%3Ffamily%3DPermanent%2BMarker;fontSize=17;strokeColor=none;" parent="A5uWAZjU7SPnxZfKaYR8-26" vertex="1">
          <mxGeometry width="80" height="30" as="geometry" />
        </mxCell>
        <mxCell id="A5uWAZjU7SPnxZfKaYR8-28" value="" style="shape=partialRectangle;overflow=hidden;connectable=0;fillColor=none;top=0;left=0;bottom=0;right=0;align=left;spacingLeft=6;" parent="A5uWAZjU7SPnxZfKaYR8-26" vertex="1">
          <mxGeometry x="80" width="170" height="30" as="geometry" />
        </mxCell>
        <mxCell id="A5uWAZjU7SPnxZfKaYR8-29" value="" style="endArrow=classic;html=1;fontFamily=Comic Sans MS;fontSize=16;" parent="1" edge="1">
          <mxGeometry width="50" height="50" relative="1" as="geometry">
            <mxPoint x="-640" y="211" as="sourcePoint" />
            <mxPoint x="-640" y="240" as="targetPoint" />
          </mxGeometry>
        </mxCell>
        <mxCell id="A5uWAZjU7SPnxZfKaYR8-30" value="" style="endArrow=classic;html=1;fontFamily=Comic Sans MS;fontSize=16;exitX=0.5;exitY=1;exitDx=0;exitDy=0;" parent="1" edge="1">
          <mxGeometry width="50" height="50" relative="1" as="geometry">
            <mxPoint x="-632.5" y="391" as="sourcePoint" />
            <mxPoint x="-637.5" y="430" as="targetPoint" />
          </mxGeometry>
        </mxCell>
        <mxCell id="02ypSgLtWr1g-AYpHdK3-1" value="InterviewerListItem" style="shape=table;startSize=30;container=1;collapsible=1;childLayout=tableLayout;fixedRows=1;rowLines=0;fontStyle=0;align=center;resizeLast=1;fillColor=#dae8fc;strokeWidth=2;perimeterSpacing=1;rounded=1;shadow=1;gradientColor=#7ea6e0;swimlaneFillColor=#99CCFF;fontFamily=Permanent Marker;fontSource=https%3A%2F%2Ffonts.googleapis.com%2Fcss%3Ffamily%3DPermanent%2BMarker;fontSize=16;strokeColor=#6c8ebf;" vertex="1" parent="1">
          <mxGeometry x="-710" y="820" width="250" height="150" as="geometry" />
        </mxCell>
        <mxCell id="02ypSgLtWr1g-AYpHdK3-2" value="" style="shape=partialRectangle;collapsible=0;dropTarget=0;pointerEvents=0;fillColor=none;points=[[0,0.5],[1,0.5]];portConstraint=eastwest;top=0;left=0;right=0;bottom=1;" vertex="1" parent="02ypSgLtWr1g-AYpHdK3-1">
          <mxGeometry y="30" width="250" height="70" as="geometry" />
        </mxCell>
        <mxCell id="02ypSgLtWr1g-AYpHdK3-3" value="props:" style="shape=partialRectangle;overflow=hidden;connectable=0;fillColor=none;top=0;left=0;bottom=0;right=0;fontStyle=0;fontFamily=Permanent Marker;fontSource=https%3A%2F%2Ffonts.googleapis.com%2Fcss%3Ffamily%3DPermanent%2BMarker;fontSize=17;strokeColor=none;" vertex="1" parent="02ypSgLtWr1g-AYpHdK3-2">
          <mxGeometry width="80" height="70" as="geometry" />
        </mxCell>
        <mxCell id="02ypSgLtWr1g-AYpHdK3-4" value="id, name, avatar, selected, setInterviewer" style="shape=partialRectangle;overflow=hidden;connectable=0;fillColor=none;top=0;left=0;bottom=0;right=0;align=left;spacingLeft=6;fontStyle=0;dashed=1;strokeColor=none;fontFamily=Comic Sans MS;fontSize=16;whiteSpace=wrap;" vertex="1" parent="02ypSgLtWr1g-AYpHdK3-2">
          <mxGeometry x="80" width="170" height="70" as="geometry" />
        </mxCell>
        <mxCell id="02ypSgLtWr1g-AYpHdK3-5" value="" style="shape=partialRectangle;collapsible=0;dropTarget=0;pointerEvents=0;fillColor=none;points=[[0,0.5],[1,0.5]];portConstraint=eastwest;top=0;left=0;right=0;bottom=0;" vertex="1" parent="02ypSgLtWr1g-AYpHdK3-1">
          <mxGeometry y="100" width="250" height="30" as="geometry" />
        </mxCell>
        <mxCell id="02ypSgLtWr1g-AYpHdK3-6" value="state: " style="shape=partialRectangle;overflow=hidden;connectable=0;fillColor=none;top=0;left=0;bottom=0;right=0;fontStyle=0;fontFamily=Permanent Marker;fontSource=https%3A%2F%2Ffonts.googleapis.com%2Fcss%3Ffamily%3DPermanent%2BMarker;fontSize=17;strokeColor=none;" vertex="1" parent="02ypSgLtWr1g-AYpHdK3-5">
          <mxGeometry width="80" height="30" as="geometry" />
        </mxCell>
        <mxCell id="02ypSgLtWr1g-AYpHdK3-7" value="" style="shape=partialRectangle;overflow=hidden;connectable=0;fillColor=none;top=0;left=0;bottom=0;right=0;align=left;spacingLeft=6;fontFamily=Comic Sans MS;fontSize=16;" vertex="1" parent="02ypSgLtWr1g-AYpHdK3-5">
          <mxGeometry x="80" width="170" height="30" as="geometry" />
        </mxCell>
        <mxCell id="02ypSgLtWr1g-AYpHdK3-9" value="" style="endArrow=classic;html=1;fontFamily=Comic Sans MS;fontSize=16;exitX=0.5;exitY=1;exitDx=0;exitDy=0;" edge="1" parent="1">
          <mxGeometry width="50" height="50" relative="1" as="geometry">
            <mxPoint x="-592.5" y="780" as="sourcePoint" />
            <mxPoint x="-597.5" y="819" as="targetPoint" />
          </mxGeometry>
        </mxCell>
        <mxCell id="02ypSgLtWr1g-AYpHdK3-10" value="Appointment" style="shape=table;startSize=30;container=1;collapsible=1;childLayout=tableLayout;fixedRows=1;rowLines=0;fontStyle=0;align=center;resizeLast=1;fillColor=#dae8fc;strokeWidth=2;perimeterSpacing=1;rounded=1;shadow=1;gradientColor=#7ea6e0;swimlaneFillColor=#99CCFF;fontFamily=Permanent Marker;fontSource=https%3A%2F%2Ffonts.googleapis.com%2Fcss%3Ffamily%3DPermanent%2BMarker;fontSize=16;strokeColor=#6c8ebf;" vertex="1" parent="1">
          <mxGeometry x="-400" y="240" width="390" height="150" as="geometry" />
        </mxCell>
        <mxCell id="02ypSgLtWr1g-AYpHdK3-11" value="" style="shape=partialRectangle;collapsible=0;dropTarget=0;pointerEvents=0;fillColor=none;points=[[0,0.5],[1,0.5]];portConstraint=eastwest;top=0;left=0;right=0;bottom=1;" vertex="1" parent="02ypSgLtWr1g-AYpHdK3-10">
          <mxGeometry y="30" width="390" height="70" as="geometry" />
        </mxCell>
        <mxCell id="02ypSgLtWr1g-AYpHdK3-12" value="props:" style="shape=partialRectangle;overflow=hidden;connectable=0;fillColor=none;top=0;left=0;bottom=0;right=0;fontStyle=0;fontFamily=Permanent Marker;fontSource=https%3A%2F%2Ffonts.googleapis.com%2Fcss%3Ffamily%3DPermanent%2BMarker;fontSize=17;strokeColor=none;" vertex="1" parent="02ypSgLtWr1g-AYpHdK3-11">
          <mxGeometry width="80" height="70" as="geometry" />
        </mxCell>
        <mxCell id="02ypSgLtWr1g-AYpHdK3-13" value="" style="shape=partialRectangle;overflow=hidden;connectable=0;fillColor=none;top=0;left=0;bottom=0;right=0;align=left;spacingLeft=6;fontStyle=0;dashed=1;strokeColor=none;fontFamily=Comic Sans MS;fontSize=16;whiteSpace=wrap;labelBorderColor=none;" vertex="1" parent="02ypSgLtWr1g-AYpHdK3-11">
          <mxGeometry x="80" width="310" height="70" as="geometry" />
        </mxCell>
        <mxCell id="02ypSgLtWr1g-AYpHdK3-14" value="" style="shape=partialRectangle;collapsible=0;dropTarget=0;pointerEvents=0;fillColor=none;points=[[0,0.5],[1,0.5]];portConstraint=eastwest;top=0;left=0;right=0;bottom=0;" vertex="1" parent="02ypSgLtWr1g-AYpHdK3-10">
          <mxGeometry y="100" width="390" height="30" as="geometry" />
        </mxCell>
        <mxCell id="02ypSgLtWr1g-AYpHdK3-15" value="state: " style="shape=partialRectangle;overflow=hidden;connectable=0;fillColor=none;top=0;left=0;bottom=0;right=0;fontStyle=0;fontFamily=Permanent Marker;fontSource=https%3A%2F%2Ffonts.googleapis.com%2Fcss%3Ffamily%3DPermanent%2BMarker;fontSize=17;strokeColor=none;" vertex="1" parent="02ypSgLtWr1g-AYpHdK3-14">
          <mxGeometry width="80" height="30" as="geometry" />
        </mxCell>
        <mxCell id="02ypSgLtWr1g-AYpHdK3-16" value="" style="shape=partialRectangle;overflow=hidden;connectable=0;fillColor=none;top=0;left=0;bottom=0;right=0;align=left;spacingLeft=6;" vertex="1" parent="02ypSgLtWr1g-AYpHdK3-14">
          <mxGeometry x="80" width="310" height="30" as="geometry" />
        </mxCell>
        <mxCell id="02ypSgLtWr1g-AYpHdK3-17" value="" style="endArrow=classic;html=1;fontFamily=Comic Sans MS;fontSize=16;exitX=0.5;exitY=1;exitDx=0;exitDy=0;" edge="1" parent="1">
          <mxGeometry width="50" height="50" relative="1" as="geometry">
            <mxPoint x="-380" y="180" as="sourcePoint" />
            <mxPoint x="-315" y="240" as="targetPoint" />
            <Array as="points">
              <mxPoint x="-345" y="200" />
            </Array>
          </mxGeometry>
        </mxCell>
        <mxCell id="02ypSgLtWr1g-AYpHdK3-18" value="Form" style="shape=table;startSize=30;container=1;collapsible=1;childLayout=tableLayout;fixedRows=1;rowLines=0;fontStyle=0;align=center;resizeLast=1;fillColor=#dae8fc;strokeWidth=2;perimeterSpacing=1;rounded=1;shadow=1;gradientColor=#7ea6e0;swimlaneFillColor=#99CCFF;fontFamily=Permanent Marker;fontSource=https%3A%2F%2Ffonts.googleapis.com%2Fcss%3Ffamily%3DPermanent%2BMarker;fontSize=16;strokeColor=#6c8ebf;" vertex="1" parent="1">
          <mxGeometry x="-440" y="450" width="250" height="150" as="geometry" />
        </mxCell>
        <mxCell id="02ypSgLtWr1g-AYpHdK3-19" value="" style="shape=partialRectangle;collapsible=0;dropTarget=0;pointerEvents=0;fillColor=none;points=[[0,0.5],[1,0.5]];portConstraint=eastwest;top=0;left=0;right=0;bottom=1;" vertex="1" parent="02ypSgLtWr1g-AYpHdK3-18">
          <mxGeometry y="30" width="250" height="70" as="geometry" />
        </mxCell>
        <mxCell id="02ypSgLtWr1g-AYpHdK3-20" value="props:" style="shape=partialRectangle;overflow=hidden;connectable=0;fillColor=none;top=0;left=0;bottom=0;right=0;fontStyle=0;fontFamily=Permanent Marker;fontSource=https%3A%2F%2Ffonts.googleapis.com%2Fcss%3Ffamily%3DPermanent%2BMarker;fontSize=17;strokeColor=none;" vertex="1" parent="02ypSgLtWr1g-AYpHdK3-19">
          <mxGeometry width="80" height="70" as="geometry" />
        </mxCell>
        <mxCell id="02ypSgLtWr1g-AYpHdK3-21" value="" style="shape=partialRectangle;overflow=hidden;connectable=0;fillColor=none;top=0;left=0;bottom=0;right=0;align=left;spacingLeft=6;fontStyle=0;dashed=1;strokeColor=none;fontSize=16;fontFamily=Comic Sans MS;whiteSpace=wrap;" vertex="1" parent="02ypSgLtWr1g-AYpHdK3-19">
          <mxGeometry x="80" width="170" height="70" as="geometry" />
        </mxCell>
        <mxCell id="02ypSgLtWr1g-AYpHdK3-22" value="" style="shape=partialRectangle;collapsible=0;dropTarget=0;pointerEvents=0;fillColor=none;points=[[0,0.5],[1,0.5]];portConstraint=eastwest;top=0;left=0;right=0;bottom=0;" vertex="1" parent="02ypSgLtWr1g-AYpHdK3-18">
          <mxGeometry y="100" width="250" height="30" as="geometry" />
        </mxCell>
        <mxCell id="02ypSgLtWr1g-AYpHdK3-23" value="state: " style="shape=partialRectangle;overflow=hidden;connectable=0;fillColor=none;top=0;left=0;bottom=0;right=0;fontStyle=0;fontFamily=Permanent Marker;fontSource=https%3A%2F%2Ffonts.googleapis.com%2Fcss%3Ffamily%3DPermanent%2BMarker;fontSize=17;strokeColor=none;" vertex="1" parent="02ypSgLtWr1g-AYpHdK3-22">
          <mxGeometry width="80" height="30" as="geometry" />
        </mxCell>
        <mxCell id="02ypSgLtWr1g-AYpHdK3-24" value="" style="shape=partialRectangle;overflow=hidden;connectable=0;fillColor=none;top=0;left=0;bottom=0;right=0;align=left;spacingLeft=6;" vertex="1" parent="02ypSgLtWr1g-AYpHdK3-22">
          <mxGeometry x="80" width="170" height="30" as="geometry" />
        </mxCell>
        <mxCell id="02ypSgLtWr1g-AYpHdK3-25" value="" style="endArrow=classic;html=1;fontFamily=Comic Sans MS;fontSize=16;exitX=0.5;exitY=1;exitDx=0;exitDy=0;entryX=0.929;entryY=0.007;entryDx=0;entryDy=0;entryPerimeter=0;" edge="1" parent="1" target="A5uWAZjU7SPnxZfKaYR8-15">
          <mxGeometry width="50" height="50" relative="1" as="geometry">
            <mxPoint x="-440" y="590" as="sourcePoint" />
            <mxPoint x="-470" y="630" as="targetPoint" />
            <Array as="points">
              <mxPoint x="-460" y="600" />
            </Array>
          </mxGeometry>
        </mxCell>
        <mxCell id="02ypSgLtWr1g-AYpHdK3-26" value="" style="endArrow=classic;html=1;fontFamily=Comic Sans MS;fontSize=16;exitX=0.5;exitY=1;exitDx=0;exitDy=0;entryX=0.5;entryY=0;entryDx=0;entryDy=0;" edge="1" parent="1" target="02ypSgLtWr1g-AYpHdK3-18">
          <mxGeometry width="50" height="50" relative="1" as="geometry">
            <mxPoint x="-253.11" y="390" as="sourcePoint" />
            <mxPoint x="-300.00200000000007" y="430.0640000000001" as="targetPoint" />
            <Array as="points">
              <mxPoint x="-273.11" y="400" />
            </Array>
          </mxGeometry>
        </mxCell>
      </root>
    </mxGraphModel>
  </diagram>
</mxfile>
